<?xml version="1.0" encoding="utf-8"?>
<!-- Generator: Adobe Illustrator 16.0.0, SVG Export Plug-In . SVG Version: 6.00 Build 0)  -->
<!DOCTYPE svg PUBLIC "-//W3C//DTD SVG 1.1//EN" "http://www.w3.org/Graphics/SVG/1.1/DTD/svg11.dtd">
<svg version="1.1" id="Layer_1" xmlns="http://www.w3.org/2000/svg" xmlns:xlink="http://www.w3.org/1999/xlink" x="0px" y="0px"
	 width="326px" height="314px" viewBox="49.5 62.5 326 314" enable-background="new 49.5 62.5 326 314" xml:space="preserve">
<path fill="#FF0000" stroke="#FFFFFF" stroke-miterlimit="10" d="M308.999,310.639c0,6.273-5.185,11.361-11.58,11.361H127.58
	c-6.396,0-11.58-5.088-11.58-11.361V143.995c0-6.275,5.185-11.362,11.58-11.362h169.838c6.395,0,11.58,5.087,11.58,11.362
	L308.999,310.639L308.999,310.639z"/>
<path fill="#FFFFFF" stroke="#FFFFFF" stroke-miterlimit="10" d="M212.502,156.553c1.525,0.157,2.971,0.421,4.315,0.813
	c2.035,0.545,3.87,1.336,5.482,2.336l-11.338,41.988c-5.036,2.615-10.56,4.227-15.985,4.474
	c-0.717,11.085,1.617,21.343,6.654,30.065l-0.013,0.026l0.03,0.004c5.036,8.722,12.75,15.873,22.709,20.794
	c2.926-4.575,7.084-8.554,11.865-11.606l0.133,0.028l35.928,9.549l5.97,1.598c0.064,1.893-0.169,3.877-0.715,5.913
	c-0.336,1.357-0.827,2.743-1.455,4.145c-6.115,13.662-23.139,23.49-38.047,21.966c-59.567-6.16-88.031-55.459-63.583-110.125
	C180.59,164.844,197.613,155.016,212.502,156.553z"/>
<ellipse fill="none" stroke="#ED1C24" stroke-width="4" stroke-miterlimit="10" cx="213.25" cy="219.704" rx="155.25" ry="148.204"/>
</svg>
